# File created by Blade
# Date/Time:  Mon Sep 22 16:09:39 2014
# Frame Rate: 120.000 fps
#------------------------------------------------------
:FULLY-SPECIFIED
:DEGREES
2737
root 2.168661 37.009476 2.907177 3.883039 -8.375018 1.369573
RightUpLeg 4.446038 -2.592907 -1.930221
RightLeg -5.426527 -0.000000 0.000000
RightFoot -12.637512 -14.165230 15.516344
RightToeBase 14.665178 -0.000000 -0.000000
LeftUpLeg 3.758968 5.222033 2.196619
LeftLeg -2.439197 -0.000000 0.000000
LeftFoot -10.874251 14.568188 -18.443505
LeftToeBase 9.687354 -0.000000 -0.000000
Spine -4.249347 -7.365839 -0.049708
RightShoulder -6.795454 -25.848993 -4.923843
RightArm 22.706692 -13.149520 74.632595
RightForeArm 81.235247 -0.000000 91.656385
RightHand 5.018758 0.000000 -17.786071
RightHandThumb1 -24.326973 -0.000000 -32.862282
LeftShoulder -28.173863 38.731729 -6.281163
LeftArm 37.184967 5.785746 -76.144851
LeftForeArm 18.413024 -0.000000 24.131341
LeftHand -13.865446 -0.000000 -7.505541
LeftHandThumb1 -26.253704 0.000000 33.147579
Head 12.179115 -0.302432 6.659365
2738
root 2.156462 37.010138 2.896845 3.870479 -8.583624 1.377259
RightUpLeg 4.411794 -2.470123 -1.932035
RightLeg -5.424549 -0.000000 0.000000
RightFoot -12.624504 -14.083432 15.506048
RightToeBase 14.746879 -0.000000 -0.000000
LeftUpLeg 3.767260 5.370443 2.192402
LeftLeg -2.401237 -0.000000 0.000000
LeftFoot -10.900389 14.640491 -18.459937
LeftToeBase 9.653203 -0.000000 -0.000000
Spine -4.228556 -7.100811 -0.140105
RightShoulder -6.701792 -26.189434 -5.005928
RightArm 24.567708 -17.195573 72.315003
RightForeArm 82.427490 -0.000000 89.479275
RightHand 4.139509 0.000000 -17.181011
RightHandThumb1 -24.326973 -0.000000 -32.862282
LeftShoulder -28.008920 38.679240 -6.234878
LeftArm 37.182464 5.653715 -76.143289
LeftForeArm 18.391396 -0.000000 23.960092
LeftHand -13.857062 -0.000000 -7.384609
LeftHandThumb1 -26.253704 0.000000 33.147579
Head 12.185651 -0.510284 6.632225
2739
root 2.140307 37.010934 2.890269 3.850462 -8.775743 1.341685
RightUpLeg 4.405801 -2.330495 -1.877856
RightLeg -5.447842 -0.000000 0.000000
RightFoot -12.548460 -14.091520 15.451192
RightToeBase 14.749454 -0.000000 -0.000000
LeftUpLeg 3.806951 5.505855 2.239121
LeftLeg -2.387305 -0.000000 0.000000
LeftFoot -10.941610 14.704953 -18.505477
LeftToeBase 9.679234 -0.000000 -0.000000
Spine -4.193108 -6.828338 -0.178709
RightShoulder -6.552717 -26.395321 -5.075674
RightArm 26.447674 -21.008685 69.912879
RightForeArm 83.731908 0.000000 87.375223
RightHand 2.544057 -0.000000 -15.541654
RightHandThumb1 -24.326973 -0.000000 -32.862282
LeftShoulder -27.840846 38.589186 -6.193499
LeftArm 37.160640 5.520583 -76.147988
LeftForeArm 18.365093 -0.000000 23.787793
LeftHand -13.838109 0.000000 -7.395206
LeftHandThumb1 -26.253704 0.000000 33.147579
Head 12.177911 -0.733160 6.600414
2740
root 2.125033 37.009117 2.884544 3.810615 -8.971795 1.323383
RightUpLeg 4.422003 -2.227268 -1.858930
RightLeg -5.448039 -0.000000 0.000000
RightFoot -12.528042 -13.959334 15.439298
RightToeBase 14.732782 -0.000000 -0.000000
LeftUpLeg 3.874165 5.637372 2.272703
LeftLeg -2.388060 -0.000000 0.000000
LeftFoot -10.979570 14.758544 -18.540969
LeftToeBase 9.667750 -0.000000 -0.000000
Spine -4.130796 -6.512318 -0.252440
RightShoulder -6.387715 -26.603488 -5.105528
RightArm 28.531545 -24.570140 67.415093
RightForeArm 84.302275 0.000000 85.212670
RightHand 0.874602 -0.000000 -13.850862
RightHandThumb1 -24.326973 -0.000000 -32.862282
LeftShoulder -27.658828 38.475148 -6.110354
LeftArm 37.153891 5.419155 -76.158432
LeftForeArm 18.331769 -0.000000 23.600618
LeftHand -13.812243 -0.000000 -7.282514
LeftHandThumb1 -26.253704 0.000000 33.147579
Head 12.138556 -0.967651 6.596754
2741
root 2.110161 37.007290 2.875568 3.817102 -9.151382 1.314071
RightUpLeg 4.382489 -2.100419 -1.843101
RightLeg -5.445813 -0.000000 0.000000
RightFoot -12.525266 -13.880777 15.423648
RightToeBase 14.805956 -0.000000 -0.000000
LeftUpLeg 3.875207 5.744483 2.291044
LeftLeg -2.368716 -0.000000 0.000000
LeftFoot -11.022980 14.827463 -18.577192
LeftToeBase 9.702892 -0.000000 -0.000000
Spine -4.130747 -6.150534 -0.330214
RightShoulder -6.163943 -26.723932 -5.127981
RightArm 30.671623 -28.103534 64.779942
RightForeArm 85.398746 -0.000000 83.293019
RightHand -0.292263 -0.000000 -13.007214
RightHandThumb1 -24.326973 -0.000000 -32.862282
LeftShoulder -27.456375 38.406323 -6.016204
LeftArm 37.211385 5.358593 -76.142187
LeftForeArm 18.293678 0.000000 23.403351
LeftHand -13.890169 -0.000000 -7.163304
LeftHandThumb1 -26.253704 0.000000 33.147579
Head 12.099550 -1.247292 6.597567
2742
root 2.093072 37.006079 2.868771 3.810993 -9.279261 1.264341
RightUpLeg 4.382151 -1.987887 -1.769099
RightLeg -5.484976 -0.000000 0.000000
RightFoot -12.509164 -13.915664 15.431577
RightToeBase 14.907175 -0.000000 -0.000000
LeftUpLeg 3.888654 5.835741 2.357480
LeftLeg -2.339503 -0.000000 0.000000
LeftFoot -11.077850 14.860459 -18.599634
LeftToeBase 9.673652 -0.000000 -0.000000
Spine -4.108373 -5.768348 -0.352178
RightShoulder -5.847959 -26.754246 -5.137326
RightArm 32.523906 -31.204148 62.557234
RightForeArm 85.883358 -0.000000 81.569804
RightHand -1.499368 0.000000 -11.962781
RightHandThumb1 -24.326973 -0.000000 -32.862282
LeftShoulder -27.243401 38.335200 -5.940177
LeftArm 37.317697 5.328923 -76.090624
LeftForeArm 18.267278 -0.000000 23.197202
LeftHand -13.924430 -0.000000 -7.253027
LeftHandThumb1 -26.253704 0.000000 33.147579
Head 12.041018 -1.562908 6.586995
2743
root 2.075839 37.004084 2.860368 3.827168 -9.378041 1.230330
RightUpLeg 4.344853 -1.985908 -1.718438
RightLeg -5.477768 -0.000000 0.000000
RightFoot -12.413472 -13.754509 15.516726
RightToeBase 14.548586 -0.000000 -0.000000
LeftUpLeg 3.870592 5.882621 2.409896
LeftLeg -2.309498 -0.000000 0.000000
LeftFoot -11.131382 14.903174 -18.619145
LeftToeBase 9.687105 -0.000000 -0.000000
Spine -4.109774 -5.371061 -0.402477
RightShoulder -5.444829 -26.835311 -5.101849
RightArm 34.218344 -33.936913 60.535931
RightForeArm 86.290162 0.000000 80.142144
RightHand -2.593423 -0.000000 -11.302785
RightHandThumb1 -24.326973 -0.000000 -32.862282
LeftShoulder -26.965198 38.221549 -5.781167
LeftArm 37.380029 5.355471 -76.021625
LeftForeArm 18.223071 -0.000000 22.988419
LeftHand -13.918777 -0.000000 -7.304243
LeftHandThumb1 -26.253704 0.000000 33.147579
Head 11.960529 -1.913737 6.616696
